<?xml version="1.0" encoding="UTF-8"?>
<!-- Generator: visioncortex VTracer 0.6.4 -->
<svg version="1.1" xmlns="http://www.w3.org/2000/svg" width="1000" height="1000">
<path d="M0 0 C330 0 660 0 1000 0 C1000 330 1000 660 1000 1000 C670 1000 340 1000 0 1000 C0 670 0 340 0 0 Z " fill="#121212" transform="translate(0,0)"/>
<path d="M0 0 C0.72 -0 1.45 -0.01 2.2 -0.01 C11.3 -0.01 21.77 1.33 28.76 7.75 C33.91 13.58 35.47 17.97 35.3 25.79 C34.14 36.15 28.92 43.64 20.93 50.08 C16.37 53.08 16.37 53.08 13.93 53.08 C22.06 66.18 30.35 78.99 39.93 91.08 C40.58 91.91 41.22 92.74 41.88 93.59 C49.35 102.73 58.29 107.89 69.93 109.08 C69.93 110.07 69.93 111.06 69.93 112.08 C65.24 112.28 60.55 112.42 55.85 112.52 C54.25 112.56 52.66 112.61 51.06 112.68 C37.94 113.24 37.94 113.24 33.25 110.52 C31.17 108.5 29.56 106.47 27.93 104.08 C27.45 103.47 26.97 102.87 26.47 102.25 C25.05 100.44 23.74 98.59 22.43 96.7 C21.95 96.01 21.46 95.31 20.96 94.59 C16.15 87.58 11.65 80.37 7.18 73.14 C6.82 72.56 6.46 71.97 6.09 71.37 C5.06 69.71 4.03 68.03 3.01 66.36 C2.42 65.39 1.82 64.42 1.21 63.42 C-0.07 61.08 -0.07 61.08 -0.07 59.08 C-6.01 59.08 -11.95 59.08 -18.07 59.08 C-18.05 65.25 -18 71.43 -17.91 77.6 C-17.89 79.7 -17.88 81.8 -17.87 83.9 C-17.86 86.92 -17.82 89.94 -17.77 92.96 C-17.78 93.9 -17.78 94.84 -17.79 95.8 C-17.68 100.37 -17.55 102.44 -14.7 106.17 C-11.68 108.36 -9.95 108.76 -6.25 108.89 C-5.28 108.94 -4.3 108.99 -3.3 109.04 C-2.56 109.05 -1.82 109.06 -1.07 109.08 C-1.07 110.07 -1.07 111.06 -1.07 112.08 C-18.56 112.08 -36.05 112.08 -54.07 112.08 C-54.07 111.09 -54.07 110.1 -54.07 109.08 C-53.32 109.02 -52.57 108.96 -51.8 108.89 C-50.82 108.81 -49.83 108.73 -48.82 108.64 C-47.84 108.56 -46.87 108.48 -45.86 108.39 C-44.48 108.24 -44.48 108.24 -43.07 108.08 C-42.33 108.03 -41.59 107.97 -40.83 107.92 C-38.79 107.18 -38.79 107.18 -37.97 104.57 C-36.89 100.38 -36.78 96.61 -36.79 92.31 C-36.79 91.45 -36.78 90.58 -36.78 89.7 C-36.76 86.86 -36.76 84.03 -36.77 81.2 C-36.76 79.22 -36.76 77.25 -36.75 75.27 C-36.75 71.14 -36.75 67.01 -36.75 62.88 C-36.76 57.58 -36.74 52.29 -36.72 46.99 C-36.7 42.91 -36.7 38.84 -36.7 34.76 C-36.7 32.81 -36.7 30.86 -36.69 28.91 C-36.68 26.18 -36.68 23.45 -36.69 20.72 C-36.69 19.92 -36.68 19.11 -36.67 18.28 C-36.71 13.7 -37.22 10.72 -40.07 7.08 C-42.89 5.17 -45.45 4.75 -48.82 4.45 C-50.02 4.34 -50.02 4.34 -51.24 4.23 C-52.14 4.15 -52.14 4.15 -53.07 4.08 C-53.07 3.09 -53.07 2.1 -53.07 1.08 C-47.27 0.93 -41.48 0.79 -35.68 0.65 C-33.72 0.6 -31.76 0.55 -29.8 0.51 C-19.86 0.26 -9.93 0.03 0 0 Z " fill="#DADADA" transform="translate(355.06640625,425.921875)"/>
<path d="M0 0 C0.66 0 1.32 0 2 0 C2.23 0.62 2.45 1.24 2.69 1.88 C4.5 4.81 5.67 5.04 9 6 C12.46 6.29 15.9 6.27 19.37 6.26 C20.41 6.26 21.46 6.27 22.53 6.27 C25.98 6.28 29.42 6.27 32.87 6.27 C35.26 6.27 37.66 6.27 40.06 6.27 C45.08 6.27 50.11 6.27 55.14 6.26 C61.57 6.25 68 6.26 74.44 6.27 C79.39 6.28 84.34 6.27 89.29 6.27 C91.67 6.27 94.04 6.27 96.41 6.27 C99.73 6.28 103.05 6.27 106.37 6.26 C107.84 6.26 107.84 6.26 109.33 6.27 C114.6 6.24 119.05 5.87 124 4 C125.8 1.99 125.8 1.99 127 0 C127.66 0 128.32 0 129 0 C129.31 15.43 128.36 30.63 127 46 C126.34 46 125.68 46 125 46 C124.76 44.94 124.52 43.88 124.27 42.78 C120.76 27.23 120.76 27.23 110 16 C103.58 12.49 97.27 11.8 90.06 11.75 C89.37 11.73 88.68 11.71 87.97 11.69 C83.22 11.65 80.01 12.44 76 15 C73.8 18.3 73.75 19.28 73.74 23.11 C73.73 24.17 73.73 25.22 73.72 26.31 C73.72 27.47 73.72 28.63 73.73 29.83 C73.72 31.66 73.72 31.66 73.71 33.53 C73.7 36.88 73.7 40.23 73.7 43.58 C73.7 46.38 73.69 49.18 73.69 51.98 C73.68 58.58 73.68 65.18 73.68 71.78 C73.69 78.59 73.68 85.4 73.66 92.21 C73.64 98.06 73.63 103.91 73.64 109.75 C73.64 113.25 73.64 116.74 73.62 120.23 C73.61 124.12 73.62 128.02 73.63 131.91 C73.62 133.07 73.61 134.22 73.6 135.42 C73.61 136.48 73.62 137.54 73.63 138.64 C73.63 140.02 73.63 140.02 73.63 141.43 C74.08 144.55 75.19 146.44 77 149 C80.41 151.5 84.12 151.4 88.25 151.62 C89.51 151.7 90.78 151.77 92.08 151.85 C93.52 151.93 93.52 151.93 95 152 C95 152.99 95 153.98 95 155 C73.88 155 52.76 155 31 155 C31 154.01 31 153.02 31 152 C32.11 151.89 33.22 151.78 34.36 151.67 C35.82 151.51 37.29 151.35 38.75 151.19 C39.48 151.12 40.21 151.05 40.96 150.97 C45.09 150.51 48.07 150.06 51 147 C52 143.99 52.13 141.99 52.13 138.84 C52.14 137.77 52.14 136.7 52.15 135.6 C52.15 134.43 52.15 133.26 52.15 132.05 C52.15 130.81 52.15 129.58 52.16 128.31 C52.16 124.92 52.17 121.54 52.17 118.15 C52.17 115.32 52.17 112.5 52.18 109.67 C52.18 103.01 52.19 96.34 52.19 89.68 C52.18 82.8 52.2 75.92 52.21 69.04 C52.22 63.14 52.23 57.23 52.23 51.33 C52.23 47.8 52.23 44.27 52.24 40.75 C52.25 36.81 52.25 32.88 52.24 28.95 C52.25 27.78 52.25 26.61 52.26 25.4 C52.26 24.33 52.25 23.26 52.25 22.16 C52.25 21.23 52.25 20.3 52.25 19.34 C52.15 16.73 52.15 16.73 50 14 C41.8 10.34 29.78 10.49 21.38 13.69 C19.89 14.41 18.43 15.18 17 16 C16.04 16.51 16.04 16.51 15.05 17.03 C5.08 23.1 2.16 35.51 -1 46 C-1.99 46 -2.98 46 -4 46 C-3.6 39.61 -3.19 33.22 -2.77 26.83 C-2.63 24.65 -2.49 22.48 -2.36 20.3 C-2.16 17.18 -1.96 14.06 -1.75 10.94 C-1.69 9.96 -1.63 8.98 -1.57 7.97 C-1.48 6.62 -1.48 6.62 -1.39 5.24 C-1.34 4.45 -1.29 3.65 -1.23 2.83 C-1 1 -1 1 0 0 Z " fill="#D8D8D8" transform="translate(164,383)"/>
<path d="M0 0 C12.07 9.29 20.93 21.13 24.3 36.21 C26.08 54.34 23.18 69.3 12.3 84.21 C11.58 85.24 10.85 86.27 10.11 87.34 C-0.62 99.51 -15.96 106 -31.7 108.21 C-47.98 109.17 -62.78 106.18 -75.46 95.42 C-87.13 84.95 -95 70.51 -95.91 54.64 C-96.11 37.2 -91.8 23.2 -79.7 10.21 C-59.12 -9.94 -24.86 -16.45 0 0 Z M-66.39 8.21 C-76.81 22.8 -77.81 41.68 -75.3 58.96 C-72.3 73.8 -65.62 87.99 -53.11 97.1 C-43.38 103.14 -34.06 104.83 -22.7 102.63 C-14.19 99.98 -7.48 94.74 -2.82 87.13 C-1.32 84.19 0.04 81.26 1.3 78.21 C1.66 77.41 2.02 76.61 2.39 75.79 C4.9 68.65 4.51 60.99 4.55 53.52 C4.57 52.42 4.59 51.31 4.61 50.17 C4.69 33.57 -0.71 18.32 -12.39 6.27 C-21.15 -1.51 -31.97 -4.45 -43.53 -4.14 C-52.46 -3.16 -60.6 1.35 -66.39 8.21 Z " fill="#DADADA" transform="translate(595.703125,432.7890625)"/>
<path d="M0 0 C11.2 -0.02 22.39 -0.04 33.59 -0.05 C38.79 -0.06 43.98 -0.06 49.18 -0.08 C54.19 -0.09 59.21 -0.09 64.22 -0.09 C66.13 -0.1 68.05 -0.1 69.97 -0.11 C72.64 -0.11 75.32 -0.11 77.99 -0.11 C78.79 -0.12 79.59 -0.12 80.42 -0.12 C85.89 -0.11 85.89 -0.11 87 1 C87.09 3.07 87.11 5.15 87.1 7.22 C87.09 9.11 87.09 9.11 87.09 11.04 C87.08 12.38 87.07 13.72 87.06 15.06 C87.06 16.41 87.05 17.75 87.05 19.1 C87.04 22.4 87.02 25.7 87 29 C85.51 28.5 85.51 28.5 84 28 C83.08 25.78 83.08 25.78 82.25 22.94 C79.71 15.52 75.85 10.23 68.81 6.56 C63.24 4.03 58.11 3.79 52.06 3.75 C51.26 3.73 50.47 3.71 49.64 3.69 C45 3.66 41.6 3.74 38 7 C35.82 12.04 35.66 16.72 35.59 22.12 C35.57 22.97 35.55 23.83 35.53 24.71 C35.47 27.43 35.42 30.15 35.38 32.88 C35.34 34.73 35.3 36.58 35.26 38.43 C35.16 42.95 35.08 47.48 35 52 C35.78 51.94 36.56 51.88 37.36 51.82 C40.97 51.54 44.58 51.27 48.19 51 C50.03 50.86 50.03 50.86 51.9 50.71 C59.95 50.12 67.93 49.88 76 50 C76.1 56.93 76.1 56.93 76 59 C75.67 59.33 75.34 59.66 75 60 C73.46 59.93 71.92 59.8 70.39 59.63 C63.21 58.91 56.01 58.42 48.81 57.94 C47.47 57.85 46.12 57.75 44.77 57.66 C41.51 57.44 38.26 57.22 35 57 C35.07 62.73 35.16 68.46 35.26 74.19 C35.3 76.14 35.32 78.08 35.35 80.03 C35.38 82.84 35.43 85.64 35.49 88.45 C35.49 89.31 35.5 90.18 35.51 91.07 C35.63 96.09 36.17 99.68 39 104 C43.61 107.07 48.26 106.33 53.69 106.31 C55.28 106.34 55.28 106.34 56.91 106.36 C67.52 106.37 73.92 103.89 81.73 96.54 C85.12 92.75 87.13 88.7 89 84 C89.37 83.08 89.74 82.15 90.12 81.2 C90.41 80.48 90.7 79.75 91 79 C91.99 79 92.98 79 94 79 C93.74 83.4 93.47 87.79 93.2 92.19 C93.11 93.69 93.02 95.18 92.93 96.68 C92.8 98.83 92.67 100.97 92.54 103.12 C92.46 104.41 92.38 105.71 92.3 107.04 C92 110 92 110 91 111 C88.17 111.1 85.36 111.13 82.53 111.11 C81.65 111.11 80.76 111.11 79.84 111.11 C76.89 111.11 73.95 111.11 71 111.1 C68.96 111.1 66.92 111.09 64.88 111.09 C59.5 111.09 54.12 111.08 48.75 111.07 C43.26 111.06 37.78 111.05 32.3 111.05 C21.53 111.04 10.77 111.02 0 111 C0 110.01 0 109.02 0 108 C0.75 107.94 1.5 107.88 2.27 107.82 C3.25 107.73 4.24 107.65 5.25 107.56 C6.22 107.48 7.2 107.4 8.2 107.32 C9.59 107.16 9.59 107.16 11 107 C11.74 106.95 12.47 106.89 13.23 106.84 C15.28 106.1 15.28 106.1 16.09 103.49 C17.17 99.33 17.28 95.6 17.26 91.32 C17.26 90.47 17.27 89.62 17.27 88.74 C17.28 85.94 17.27 83.14 17.27 80.34 C17.27 78.39 17.27 76.43 17.27 74.48 C17.27 70.4 17.27 66.31 17.26 62.22 C17.25 56.99 17.26 51.76 17.27 46.52 C17.28 42.49 17.27 38.46 17.27 34.43 C17.27 32.5 17.27 30.57 17.27 28.64 C17.28 25.95 17.27 23.25 17.26 20.55 C17.26 19.76 17.27 18.96 17.27 18.14 C17.24 14 16.97 10.68 15 7 C10.68 3.22 5.48 3.31 0 3 C0 2.01 0 1.02 0 0 Z " fill="#DBDBDB" transform="translate(746,427)"/>
<path d="M0 0 C17.16 0 34.32 0 52 0 C52 0.99 52 1.98 52 3 C51.1 3.1 50.19 3.2 49.26 3.3 C48.08 3.45 46.9 3.6 45.69 3.75 C44.52 3.89 43.34 4.03 42.14 4.17 C38.95 4.73 38.95 4.73 37.14 6.89 C34.8 11.21 34.85 15.14 34.85 19.92 C34.85 20.73 34.85 21.54 34.84 22.37 C34.84 25.04 34.83 27.71 34.83 30.39 C34.83 32.25 34.83 34.11 34.82 35.97 C34.82 39.87 34.81 43.77 34.81 47.68 C34.81 52.66 34.8 57.65 34.78 62.64 C34.77 66.49 34.77 70.33 34.77 74.17 C34.77 76.01 34.77 77.85 34.76 79.69 C34.75 82.27 34.75 84.85 34.76 87.43 C34.75 88.18 34.75 88.93 34.74 89.71 C34.77 94.77 35.46 99.16 37 104 C42.06 107.14 48.95 106.33 54.75 106.31 C55.78 106.33 56.82 106.34 57.88 106.36 C68.12 106.37 77.11 104.57 84.74 97.35 C90.45 91.35 94.22 84.1 96 76 C96.99 76 97.98 76 99 76 C99.12 84.29 98.95 92.53 98.56 100.81 C98.52 101.7 98.48 102.59 98.44 103.51 C98.12 109.88 98.12 109.88 97 111 C93.99 111.1 91 111.13 87.98 111.11 C87.04 111.11 86.09 111.11 85.11 111.11 C81.97 111.11 78.83 111.11 75.68 111.1 C73.51 111.1 71.34 111.09 69.16 111.09 C63.43 111.09 57.7 111.08 51.97 111.07 C46.12 111.06 40.28 111.05 34.43 111.05 C22.95 111.04 11.48 111.02 0 111 C0 110.01 0 109.02 0 108 C0.68 107.95 1.35 107.9 2.05 107.85 C3.38 107.74 3.38 107.74 4.75 107.62 C6.07 107.52 6.07 107.52 7.42 107.41 C10.98 106.85 10.98 106.85 14 105 C15.92 99.68 16.29 94.92 16.27 89.3 C16.28 88.46 16.28 87.62 16.29 86.75 C16.3 83.99 16.3 81.22 16.3 78.46 C16.3 76.53 16.31 74.6 16.31 72.68 C16.32 68.64 16.32 64.61 16.32 60.58 C16.31 55.41 16.33 50.24 16.35 45.08 C16.36 41.1 16.37 37.12 16.36 33.14 C16.36 31.24 16.37 29.33 16.38 27.43 C16.39 24.77 16.38 22.1 16.37 19.44 C16.38 18.66 16.39 17.87 16.4 17.07 C16.35 12.53 15.8 9.61 13 6 C10.17 4.1 7.61 3.67 4.25 3.38 C3.45 3.3 2.65 3.23 1.83 3.15 C1.22 3.1 0.62 3.05 0 3 C0 2.01 0 1.02 0 0 Z " fill="#DCDCDC" transform="translate(636,427)"/>
<path d="M0 0 C17.49 0 34.98 0 53 0 C53 0.99 53 1.98 53 3 C52.26 3.03 51.53 3.05 50.77 3.08 C44.53 3.41 44.53 3.41 38.88 5.88 C35.3 9.93 35.85 14.32 35.85 19.43 C35.85 20.29 35.85 21.15 35.84 22.04 C35.84 24.89 35.83 27.74 35.83 30.59 C35.83 32.57 35.83 34.54 35.82 36.52 C35.82 40.67 35.81 44.83 35.81 48.98 C35.81 54.3 35.8 59.61 35.78 64.93 C35.77 69.02 35.77 73.11 35.77 77.2 C35.77 79.16 35.77 81.12 35.76 83.08 C35.75 85.82 35.75 88.57 35.76 91.31 C35.75 92.12 35.75 92.93 35.74 93.76 C35.76 97.93 36.01 101.29 38 105 C41.04 107.19 44.08 107.36 47.75 107.62 C48.73 107.7 49.72 107.77 50.73 107.85 C51.86 107.93 51.86 107.93 53 108 C53 108.99 53 109.98 53 111 C35.51 111 18.02 111 0 111 C0 110.01 0 109.02 0 108 C0.66 107.96 1.33 107.93 2.01 107.89 C8.99 107.39 8.99 107.39 15 104 C16.66 100.68 16.17 96.95 16.18 93.3 C16.18 92.4 16.19 91.5 16.2 90.57 C16.22 87.58 16.23 84.59 16.24 81.6 C16.24 80.07 16.24 80.07 16.25 78.51 C16.27 73.12 16.29 67.73 16.3 62.33 C16.31 56.76 16.34 51.18 16.38 45.6 C16.41 41.32 16.41 37.04 16.42 32.75 C16.42 30.7 16.43 28.64 16.45 26.59 C16.48 23.71 16.48 20.84 16.47 17.96 C16.48 17.11 16.5 16.26 16.51 15.38 C16.47 10.6 16.47 10.6 14.16 6.49 C11.37 4.57 9.1 4.19 5.75 3.75 C4.67 3.6 3.59 3.45 2.48 3.3 C1.66 3.2 0.84 3.1 0 3 C0 2.01 0 1.02 0 0 Z " fill="#D8D8D8" transform="translate(431,427)"/>
<path d="M0 0 C5.28 3.11 8.77 7.49 10.56 13.38 C10.9 16.63 10.93 19.86 10.94 23.12 C10.96 23.98 10.99 24.84 11.01 25.72 C11.04 33.02 9.43 39.35 4.31 44.75 C-2.52 48.79 -7.46 49.56 -15.23 49.45 C-16.02 49.45 -16.81 49.44 -17.63 49.44 C-19.56 49.42 -21.5 49.4 -23.44 49.38 C-23.51 43.2 -23.57 37.03 -23.6 30.85 C-23.62 28.75 -23.64 26.65 -23.66 24.55 C-23.7 21.53 -23.72 18.51 -23.73 15.49 C-23.75 14.55 -23.76 13.62 -23.78 12.65 C-23.78 7.74 -23.69 4.34 -20.44 0.38 C-14.9 -3.53 -5.92 -2.71 0 0 Z " fill="#131313" transform="translate(360.4375,431.625)"/>
<path d="M0 0 C4.59 1.8 6.71 4.68 9 9 C9 10.98 9 12.96 9 15 C2.07 15 -4.86 15 -12 15 C-11.67 16.65 -11.34 18.3 -11 20 C-8.23 20.92 -6.43 21.16 -3.56 21.19 C-2.42 21.21 -2.42 21.21 -1.25 21.23 C1.23 20.98 2.85 20.24 5 19 C5.33 20.65 5.66 22.3 6 24 C1.01 26.97 -4.37 26.76 -10 26 C-13.23 24.37 -15.36 22.28 -17 19 C-18.04 9.08 -18.04 9.08 -15.95 4.91 C-11.31 -0.68 -6.84 -0.58 0 0 Z " fill="#CCCCCC" transform="translate(603,591)"/>
<path d="M0 0 C4.59 1.8 6.71 4.68 9 9 C9 10.98 9 12.96 9 15 C2.07 15 -4.86 15 -12 15 C-10.23 18.18 -10.23 18.18 -8 21 C-6 21.2 -6 21.2 -3.69 21.19 C-2.91 21.2 -2.13 21.22 -1.32 21.23 C1.2 20.98 2.82 20.26 5 19 C5 19.66 5 20.32 5 21 C5.66 21 6.32 21 7 21 C6 24 6 24 4.31 25.16 C-0.3 26.83 -5.18 26.54 -10 26 C-13.74 23.91 -15.39 21.9 -17 18 C-17.66 12.87 -17.86 8.45 -15.19 3.94 C-10.17 -0.51 -6.47 -0.65 0 0 Z " fill="#CBCBCB" transform="translate(472,591)"/>
<path d="M0 0 C3.69 1.5 3.69 1.5 6 3 C5.67 4.32 5.34 5.64 5 7 C3.99 6.67 2.98 6.34 1.94 6 C-2.71 4.69 -7 3.98 -11.44 6.25 C-13.44 8.11 -13.44 8.11 -13 12 C-10.02 13.98 -8.05 14.61 -4.62 15.44 C-0.66 16.48 2.69 17.47 6 20 C7.55 23.1 7.29 25.58 7 29 C4.86 32.39 3.82 33.73 0 35 C-2.29 35.15 -4.58 35.22 -6.88 35.25 C-8.09 35.28 -9.3 35.3 -10.55 35.33 C-14.21 34.98 -16.06 34.12 -19 32 C-18.67 30.68 -18.34 29.36 -18 28 C-17.24 28.33 -16.47 28.66 -15.69 29 C-10.65 30.36 -3.83 31.42 1 29 C1 27.02 1 25.04 1 23 C-0.04 22.69 -1.07 22.37 -2.14 22.05 C-3.51 21.62 -4.88 21.18 -6.25 20.75 C-6.93 20.55 -7.61 20.34 -8.32 20.13 C-12.47 18.8 -15.39 17.56 -18 14 C-18.79 10.92 -18.68 8.1 -18 5 C-12.68 -0.6 -7.37 -0.62 0 0 Z " fill="#D1D1D1" transform="translate(441,582)"/>
<path d="M0 0 C9.57 0 19.14 0 29 0 C29 1.65 29 3.3 29 5 C25.04 5 21.08 5 17 5 C17 14.9 17 24.8 17 35 C15.35 35 13.7 35 12 35 C12 25.1 12 15.2 12 5 C8.04 5 4.08 5 0 5 C0 3.35 0 1.7 0 0 Z " fill="#CCCCCC" transform="translate(373,582)"/>
<path d="M0 0 C2.34 1.02 2.34 1.02 4 2 C3.67 2.99 3.34 3.98 3 5 C-1.29 5 -5.58 5 -10 5 C-10.33 6.65 -10.66 8.3 -11 10 C-10.26 10.11 -9.53 10.22 -8.77 10.33 C2.1 12.1 2.1 12.1 5 15 C5.62 18.44 5.62 18.44 5 22 C2.3 24.79 0.68 25.9 -3.19 26.46 C-4.3 26.43 -5.42 26.4 -6.56 26.38 C-7.68 26.36 -8.79 26.35 -9.94 26.34 C-12.83 26.02 -14.55 25.5 -17 24 C-16.67 22.68 -16.34 21.36 -16 20 C-15.46 20.16 -14.92 20.33 -14.36 20.5 C-11.6 21.09 -9.07 21.1 -6.25 21.06 C-5.27 21.05 -4.28 21.04 -3.27 21.04 C-2.52 21.02 -1.77 21.01 -1 21 C-1 19.68 -1 18.36 -1 17 C-1.83 16.82 -2.66 16.64 -3.52 16.45 C-4.61 16.2 -5.69 15.95 -6.81 15.69 C-7.89 15.44 -8.97 15.2 -10.08 14.95 C-12.98 14.01 -14.25 13.46 -16 11 C-16.59 6.94 -16.67 4.9 -14.19 1.56 C-9.55 -0.71 -5.09 -0.65 0 0 Z " fill="#D2D2D2" transform="translate(634,591)"/>
<path d="M0 0 C2.54 1.06 3.91 2.13 6 4 C6 4.66 6 5.32 6 6 C4.19 6.62 4.19 6.62 2 7 C1.01 6.34 0.02 5.68 -1 5 C-4.02 4.66 -6.1 4.43 -9 5 C-12 7.55 -12.85 9.13 -13.5 13 C-12.85 16.87 -12 18.45 -9 21 C-3.86 21.57 -0.73 21.09 4 19 C4.66 19.33 5.32 19.66 6 20 C5.05 22.38 4.43 23.73 2.23 25.11 C-1.77 26.71 -5.77 26.55 -10 26 C-14.12 23.94 -16.32 22.26 -18 18 C-18.65 12.9 -18.83 8.46 -16.25 3.94 C-11.22 -0.39 -6.47 -0.85 0 0 Z " fill="#D3D3D3" transform="translate(574,591)"/>
<path d="M0 0 C1.65 0 3.3 0 5 0 C5.24 0.54 5.47 1.08 5.72 1.64 C6.79 4.07 7.86 6.5 8.94 8.94 C9.31 9.79 9.68 10.64 10.07 11.51 C10.43 12.32 10.78 13.13 11.15 13.96 C11.48 14.71 11.81 15.46 12.15 16.23 C12.87 17.98 12.87 17.98 14 19 C14.22 18.46 14.43 17.92 14.66 17.36 C15.65 14.92 16.67 12.49 17.69 10.06 C18.03 9.21 18.37 8.36 18.72 7.49 C19.69 5.2 20.63 3.08 22 1 C24.77 -0.07 24.77 -0.07 27 0 C25.17 6.02 22.89 11.74 20.38 17.5 C20.06 18.22 19.75 18.94 19.43 19.68 C17.13 24.87 17.13 24.87 16 26 C14.33 26.04 12.67 26.04 11 26 C9.16 22.04 7.33 18.09 5.5 14.12 C4.71 12.43 4.71 12.43 3.91 10.71 C3.17 9.09 3.17 9.09 2.41 7.45 C1.95 6.45 1.48 5.46 1.01 4.43 C0 2 0 2 0 0 Z " fill="#D2D2D2" transform="translate(508,591)"/>
<path d="M0 0 C1.65 0 3.3 0 5 0 C5 11.55 5 23.1 5 35 C3.35 35 1.7 35 0 35 C0 23.45 0 11.9 0 0 Z " fill="#D5D5D5" transform="translate(361,582)"/>
<path d="M0 0 C1.65 0 3.3 0 5 0 C5.33 0.66 5.66 1.32 6 2 C6.99 1.34 7.98 0.68 9 0 C11.69 -0.12 11.69 -0.12 14 0 C14 1.32 14 2.64 14 4 C12.3 4.68 12.3 4.68 10.56 5.38 C6.95 6.57 6.95 6.57 6 9 C5.77 11.88 5.58 14.74 5.44 17.62 C5.37 18.83 5.37 18.83 5.31 20.05 C5.2 22.04 5.1 24.02 5 26 C3.35 26 1.7 26 0 26 C0 17.42 0 8.84 0 0 Z " fill="#D3D3D3" transform="translate(489,591)"/>
<path d="M0 0 C17.49 0 34.98 0 53 0 C53 0.99 53 1.98 53 3 C35.51 3 18.02 3 0 3 C0 2.01 0 1.02 0 0 Z " fill="#DDDDDD" transform="translate(674,597)"/>
<path d="M0 0 C17.49 0 34.98 0 53 0 C53 0.99 53 1.98 53 3 C35.51 3 18.02 3 0 3 C0 2.01 0 1.02 0 0 Z " fill="#DDDDDD" transform="translate(273,597)"/>
<path d="M0 0 C1.65 0 3.3 0 5 0 C5 8.58 5 17.16 5 26 C3.35 26 1.7 26 0 26 C0 17.42 0 8.84 0 0 Z " fill="#D2D2D2" transform="translate(542,591)"/>
<path d="M0 0 C3.6 0.07 4.16 0.42 7.19 2.81 C9.19 5.44 9.19 5.44 9.19 7.44 C3.58 7.44 -2.03 7.44 -7.81 7.44 C-5.07 0.58 -5.07 0.58 0 0 Z " fill="#191919" transform="translate(597.8125,594.5625)"/>
<path d="M0 0 C2.94 2.38 2.94 2.38 5 5 C5 5.66 5 6.32 5 7 C-0.28 7 -5.56 7 -11 7 C-10.67 5.35 -10.34 3.7 -10 2 C-6.25 -0.5 -4.44 -0.54 0 0 Z " fill="#161616" transform="translate(471,595)"/>
<path d="M0 0 C3.3 0 6.6 0 10 0 C10 0.33 10 0.66 10 1 C30.3 1.5 30.3 1.5 51 2 C51 2.33 51 2.66 51 3 C34.17 3 17.34 3 0 3 C0 2.01 0 1.02 0 0 Z " fill="#B8B8B8" transform="translate(195,535)"/>
<path d="M0 0 C12.87 0 25.74 0 39 0 C39 0.99 39 1.98 39 3 C37.68 3 36.36 3 35 3 C35 2.34 35 1.68 35 1 C23.45 1 11.9 1 0 1 C0 0.67 0 0.34 0 0 Z " fill="#A1A1A1" transform="translate(649,427)"/>
<path d="M0 0 C11.22 0 22.44 0 34 0 C34 0.33 34 0.66 34 1 C24.43 1.33 14.86 1.66 5 2 C5 2.33 5 2.66 5 3 C3.35 3 1.7 3 0 3 C0 2.01 0 1.02 0 0 Z " fill="#A3A3A3" transform="translate(302,427)"/>
<path d="M0 0 C1.21 0.03 1.21 0.03 2.44 0.06 C3.06 1.94 3.06 1.94 3.44 4.06 C2.78 4.72 2.12 5.38 1.44 6.06 C-0.69 5.69 -0.69 5.69 -2.56 5.06 C-3.12 3.12 -3.12 3.12 -3.56 1.06 C-2.56 0.06 -2.56 0.06 0 0 Z " fill="#C6C6C6" transform="translate(544.5625,579.9375)"/>
<path d="M0 0 C0.8 0.03 1.6 0.05 2.42 0.08 C3.03 0.12 3.63 0.15 4.25 0.19 C4.25 1.18 4.25 2.17 4.25 3.19 C-0.04 3.19 -4.33 3.19 -8.75 3.19 C-4.25 -0.19 -4.25 -0.19 0 0 Z " fill="#D0D0D0" transform="translate(254.75,534.8125)"/>
<path d="M0 0 C1.28 -0.06 2.56 -0.12 3.88 -0.19 C4.95 -0.24 4.95 -0.24 6.05 -0.29 C6.7 -0.2 7.34 -0.1 8 0 C8.66 0.99 9.32 1.98 10 3 C6.7 3 3.4 3 0 3 C0 2.01 0 1.02 0 0 Z " fill="#D2D2D2" transform="translate(431,535)"/>
<path d="M0 0 C4.29 0 8.58 0 13 0 C13 0.33 13 0.66 13 1 C10.36 1.33 7.72 1.66 5 2 C5 2.33 5 2.66 5 3 C3.35 3 1.7 3 0 3 C0 2.01 0 1.02 0 0 Z " fill="#C9C9C9" transform="translate(431,427)"/>
<path d="M0 0 C4.29 0 8.58 0 13 0 C13 0.33 13 0.66 13 1 C10.03 1 7.06 1 4 1 C4 1.66 4 2.32 4 3 C2.68 3 1.36 3 0 3 C0 2.01 0 1.02 0 0 Z " fill="#C9C9C9" transform="translate(636,427)"/>
<path d="M0 0 C1.98 0 3.96 0 6 0 C6 0.99 6 1.98 6 3 C4.02 3 2.04 3 0 3 C0 2.01 0 1.02 0 0 Z " fill="#BEBEBE" transform="translate(478,535)"/>
</svg>
